<svg width="64" height="64" viewBox="0 0 120 120" xmlns="http://www.w3.org/2000/svg" fill="none">
    <rect x="4" y="4" width="112" height="112" rx="0" fill="#8b31e0" stroke="#111111" stroke-width="6"/>
    <path d="M38 35C38 35 35 35 35 42V72C35 79 38 82 45 82H68C75 82 78 79 78 72V42C78 35 75 35 68 35H45Z" stroke="#111111" stroke-width="5" fill="#ffe034"/>
    <line x1="62" y1="68" x2="82" y2="92" stroke="#111111" stroke-width="5" stroke-linecap="square"/>
    <polygon points="88,20 78,52 90,52 76,90 106,46 92,46 104,20" fill="#ffe034" stroke="#111111" stroke-width="3" stroke-linejoin="bevel"/>
    <polyline points="42,56 50,64 65,48" stroke="#111111" stroke-width="4" stroke-linecap="square" fill="none"/>
</svg>
